<svg xmlns="http://www.w3.org/2000/svg" width="1700" height="440" viewBox="0 0 1700 440" role="img" aria-labelledby="title">
<title id="title">전체 파이프라인</title>
<defs><marker id="arrow" viewBox="0 0 10 10" refX="9" refY="5" markerWidth="6" markerHeight="6" orient="auto"><path d="M0 0 L10 5 L0 10Z" fill="#52677c"/></marker>
<style>
text { font-family: 'Pretendard', 'Noto Sans KR', 'Apple SD Gothic Neo', 'Malgun Gothic', sans-serif; text-anchor: middle; fill: #24364b; font-size: 17px; font-weight: 500; }
.heading { font-size: 19px; font-weight: 700; }
.muted { fill: #8c97a5; font-weight: 400; }
.box { fill: #ffffff; stroke: #b6c2cf; stroke-width: 1.5; rx: 10; }
.accent { fill: #edf5ff; stroke: #6796c7; stroke-width: 1.5; rx: 10; }
.flow { fill: none; stroke: #52677c; stroke-width: 2; stroke-linejoin: round; stroke-linecap: round; marker-end: url(#arrow); }
</style></defs>
<rect width="1700" height="440" fill="white"/>
<rect x="12" y="12" width="766" height="106" rx="16" fill="#f6f8fb"/>
<rect x="12" y="140" width="766" height="258" rx="16" fill="#f6f8fb"/>
<rect x="800" y="12" width="190" height="386" rx="16" fill="#f6f8fb"/>
<rect x="1070" y="12" width="190" height="386" rx="16" fill="#f6f8fb"/>
<rect x="1325" y="12" width="350" height="386" rx="16" fill="#f6f8fb"/>
<text x="65" y="61" class="heading">CSV 전처리</text>
<text x="65" y="252" class="heading">PDF 전처리</text>
<text x="895" y="36" class="heading">Query Expansion</text>
<text x="1165" y="36" class="heading">답변 생성 Step 1</text>
<text x="1500" y="36" class="heading">답변 생성 Step 2</text>
<rect x="150" y="25" width="170" height="78" class="box"/>
<text x="235.0" y="58.0">CSV</text>
<text x="235.0" y="82.0" class="muted">사고 상황 데이터</text>
<rect x="370" y="33" width="170" height="62" class="box"/>
<text x="455.0" y="70.0">컬럼 정보 분할</text>
<path d="M330 64 H360" class="flow"/>
<path d="M550 64 H765 Q785 64 800 82" class="flow"/>
<rect x="150" y="160" width="170" height="78" class="box"/>
<text x="235.0" y="193.0">PDF</text>
<text x="235.0" y="217.0" class="muted">건설안전지침</text>
<rect x="370" y="168" width="170" height="62" class="box"/>
<text x="455.0" y="205.0">필요없는 페이지 제거</text>
<rect x="590" y="168" width="170" height="62" class="box"/>
<text x="675.0" y="205.0">olmOCR 텍스트 추출</text>
<path d="M330 199 H360" class="flow"/>
<path d="M550 199 H580" class="flow"/>
<rect x="140" y="302" width="190" height="78" class="box"/>
<text x="235.0" y="335.0">숫자, 괄호 패턴 기준으로</text>
<text x="235.0" y="359.0">텍스트 분할</text>
<rect x="370" y="310" width="170" height="62" class="box"/>
<text x="455.0" y="347.0">Embedding</text>
<rect x="590" y="310" width="170" height="62" class="accent"/>
<text x="675.0" y="347.0">Vector Store</text>
<path d="M675 240 V253 Q675 268 660 268 H250 Q235 268 235 283 V292" class="flow"/>
<path d="M340 341 H360" class="flow"/>
<path d="M550 341 H580" class="flow"/>
<rect x="810" y="62" width="170" height="78" class="box"/>
<text x="895.0" y="95.0">전처리한 CSV에서</text>
<text x="895.0" y="119.0">6개 컬럼 추출</text>
<rect x="810" y="185" width="170" height="62" class="accent"/>
<text x="895.0" y="222.0">질문 3개 생성</text>
<path d="M895 150 V175" class="flow"/>
<rect x="1080" y="62" width="170" height="78" class="box"/>
<text x="1165" y="95.0">질문별 문서 검색</text>
<text x="1165" y="119.0" class="muted">30개</text>
<rect x="1080" y="185" width="170" height="78" class="box"/>
<text x="1165" y="218.0">검색 문서 재정렬</text>
<text x="1165" y="242.0" class="muted">10개 선별</text>
<rect x="1080" y="308" width="170" height="78" class="accent"/>
<text x="1165" y="341.0">질문별 대책 생성</text>
<text x="1165" y="365.0" class="muted">3개 Q&amp;A</text>
<path d="M990 216 H996 Q1008 216 1008 204 V104 Q1008 89 1023 89 H1070" class="flow"/>
<path d="M1165 150 V175" class="flow"/>
<path d="M1165 273 V298" class="flow"/>
<path d="M770 341 H784 Q796 341 796 355 V400 Q796 416 812 416 H1010 Q1026 416 1026 400 V137 Q1026 122 1041 122 H1070" class="flow"/>
<!-- Step 2 inputs: three question-answer pairs and the CSV accident cause. -->
<rect x="1335" y="62" width="155" height="78" class="box"/>
<text x="1412.5" y="107">질문/답변 3개</text>
<rect x="1510" y="62" width="155" height="78" class="box"/>
<text x="1587.5" y="95">사고원인</text>
<text x="1587.5" y="119" class="muted">CSV 정보</text>
<path d="M1260 347 H1265 Q1280 347 1280 332 V116 Q1280 101 1295 101 H1325" class="flow"/>
<path d="M1412.5 150 V169 Q1412.5 181 1424.5 181 H1575.5 Q1587.5 181 1587.5 169 V150" fill="none" stroke="#52677c" stroke-width="2" stroke-linejoin="round" stroke-linecap="round"/>
<path d="M1500 181 V216" class="flow"/>
<rect x="1415" y="226" width="170" height="78" class="accent"/>
<text x="1500" y="259">최종 대책 생성</text>
<text x="1500" y="283">3개 → 1개</text>
</svg>
